<?xml version="1.0" standalone="no"?>
<!DOCTYPE svg PUBLIC "-//W3C//DTD SVG 20010904//EN"
 "http://www.w3.org/TR/2001/REC-SVG-20010904/DTD/svg10.dtd">
<svg version="1.0" xmlns="http://www.w3.org/2000/svg"
 width="443.000000pt" height="645.000000pt" viewBox="0 0 443.000000 645.000000"
 preserveAspectRatio="xMidYMid meet">

<g transform="translate(0.000000,645.000000) scale(0.100000,-0.100000)"
fill="#000000" stroke="none">
<path d="M2200 5903 l0 -209 -45 -44 c-39 -38 -45 -50 -45 -86 0 -29 -5 -44
-16 -48 -24 -9 -12 -102 22 -167 31 -63 32 -76 9 -494 -25 -453 -58 -873 -106
-1335 -21 -209 -92 -783 -112 -915 l-12 -80 -32 -3 -33 -3 0 -71 c0 -50 4 -74
14 -82 13 -9 9 -32 -23 -161 -52 -204 -121 -436 -182 -610 l-51 -145 -62 0
-62 0 4 -70 c3 -47 1 -70 -7 -70 -7 0 -11 -25 -11 -69 l0 -69 -268 -484 -268
-483 -42 -3 -42 -3 0 -45 0 -44 240 0 240 0 0 45 c0 33 -4 45 -15 45 -8 0 -15
2 -15 5 0 4 52 100 116 216 106 189 124 216 187 275 178 164 383 244 631 244
256 0 465 -81 638 -249 72 -69 89 -95 192 -281 98 -176 111 -205 95 -208 -15
-3 -19 -12 -19 -48 l0 -44 240 0 240 0 0 45 0 45 -39 0 -38 0 -272 489 -271
490 0 63 c0 35 -5 69 -11 75 -7 7 -10 35 -7 72 l4 61 -61 0 -62 0 -76 232
c-74 225 -135 436 -173 602 -14 61 -16 80 -6 84 8 2 12 28 12 78 l0 74 -30 0
c-36 0 -31 -18 -69 270 -101 760 -173 1586 -206 2350 l-7 145 31 67 c35 76 44
168 16 168 -11 0 -15 11 -15 43 0 37 -6 48 -40 82 l-40 39 -2 210 c-3 192 -5
211 -20 214 -17 3 -18 -12 -18 -205z m138 -425 l3 -28 -120 0 -121 0 0 30 0
31 118 -3 117 -3 3 -27z m-134 -210 c9 -36 7 -60 -5 -52 -7 4 -9 0 -5 -12 3
-11 2 -25 -3 -32 -6 -10 -10 -10 -20 2 -11 13 -9 20 8 42 25 32 26 42 4 40
-10 0 -19 7 -21 17 -5 27 34 22 42 -5z m70 13 c3 -5 -1 -15 -10 -22 -13 -10
-17 -10 -25 2 -5 8 -9 17 -9 22 0 10 38 9 44 -2z m-34 -46 c0 -8 -4 -17 -10
-20 -6 -4 -10 5 -10 20 0 15 4 24 10 20 6 -3 10 -12 10 -20z m-70 1 c0 -8 -4
-18 -10 -21 -5 -3 -10 3 -10 14 0 12 5 21 10 21 6 0 10 -6 10 -14z m110 -7 c0
-11 -4 -18 -8 -15 -5 3 -9 -8 -9 -24 0 -16 4 -27 8 -25 4 3 9 -9 11 -25 4 -24
2 -27 -9 -19 -15 13 -17 1 -4 -20 13 -21 -9 -54 -26 -39 -17 14 -16 43 2 58
19 16 19 29 -1 51 -14 16 -14 20 7 48 27 37 29 37 29 10z m-118 -101 c-10 -22
-11 -21 -11 12 -1 26 2 31 11 22 8 -8 8 -17 0 -34z m48 16 c0 -14 -4 -23 -10
-19 -5 3 -10 2 -10 -4 0 -5 5 -13 10 -16 13 -8 12 -16 -6 -40 -13 -17 -16 -18
-25 -5 -7 11 -8 8 -4 -11 4 -17 1 -30 -9 -38 -14 -12 -15 -9 -10 20 5 31 53
139 61 139 1 0 3 -12 3 -26z m30 1 c0 -8 -4 -17 -10 -20 -6 -4 -10 5 -10 20 0
15 4 24 10 20 6 -3 10 -12 10 -20z m50 -112 c-1 -35 -2 -37 -15 -19 -10 13
-11 24 -4 37 14 28 19 23 19 -18z m-80 0 c0 -20 -3 -24 -11 -16 -7 7 -9 19 -6
27 10 24 17 19 17 -11z m30 -4 c0 -10 -4 -19 -10 -19 -5 0 -10 12 -10 26 0 14
4 23 10 19 6 -3 10 -15 10 -26z m-40 -44 c0 -23 -26 -37 -39 -21 -17 20 7 60
26 44 7 -6 13 -16 13 -23z m80 -6 c0 -3 -6 -12 -14 -18 -22 -18 -41 11 -25 40
11 22 12 22 25 4 8 -10 14 -22 14 -26z m-117 -34 c4 -8 2 -17 -3 -20 -6 -4
-10 -11 -10 -17 0 -6 6 -6 15 2 13 11 18 10 29 -6 14 -19 8 -46 -14 -59 -13
-8 -40 54 -40 90 0 27 14 34 23 10z m47 -12 c0 -20 -3 -24 -11 -16 -7 7 -9 19
-6 27 10 24 17 19 17 -11z m33 13 c3 -8 -1 -20 -9 -26 -12 -10 -14 -8 -14 14
0 28 14 35 23 12z m47 -13 c0 -20 -3 -24 -11 -16 -7 7 -9 19 -6 27 10 24 17
19 17 -11z m-12 -69 c-14 -31 -26 -30 -40 1 -8 19 -8 28 2 40 12 14 15 14 31
-1 14 -13 16 -20 7 -40z m-124 -69 c-22 -33 -28 -26 -19 25 7 40 8 41 21 21
13 -18 13 -24 -2 -46z m146 25 c0 -22 -7 -57 -15 -77 l-16 -37 -20 20 c-17 18
-18 24 -8 47 14 31 24 34 33 11 4 -9 9 -14 13 -11 3 4 0 13 -7 22 -13 16 -6
65 10 65 6 0 10 -18 10 -40z m-92 -22 l-3 -23 -13 23 c-11 19 -11 26 0 39 12
15 13 15 16 0 2 -9 2 -27 0 -39z m35 38 c7 -18 -3 -56 -14 -56 -5 0 -9 16 -9
35 0 35 13 47 23 21z m-43 -80 c0 -6 -7 -20 -15 -30 -15 -20 -15 -20 -30 0
-18 24 -18 25 2 53 15 23 17 23 30 6 7 -11 13 -24 13 -29z m-50 -81 c-19 -36
-26 -31 -22 16 4 37 6 40 20 25 14 -13 14 -19 2 -41z m58 3 l-3 -23 -13 23
c-11 19 -11 26 0 39 12 15 13 15 16 0 2 -9 2 -27 0 -39z m37 31 c5 -14 1 -27
-9 -37 -15 -15 -16 -13 -16 21 0 40 15 50 25 16z m65 -34 l0 -30 -19 24 c-15
19 -16 29 -8 42 14 23 27 6 27 -36z m-117 -20 c17 -24 17 -26 -4 -55 l-22 -30
-19 31 c-17 29 -17 31 -1 54 22 30 24 30 46 0z m91 0 c15 -23 15 -28 1 -56
l-16 -30 -20 24 c-23 31 -24 45 -2 69 20 22 18 23 37 -7z m-124 -95 c0 -3 -9
-16 -20 -30 l-20 -25 0 55 0 55 20 -25 c11 -14 20 -27 20 -30z m154 -2 c8 -52
-3 -62 -24 -23 -11 21 -11 29 0 50 7 14 14 24 15 22 2 -1 6 -23 9 -49z m-106
-25 l-4 -28 -13 26 c-11 22 -11 31 0 50 l14 24 3 -22 c2 -13 2 -35 0 -50z m40
46 c11 -17 11 -25 -3 -45 -8 -13 -18 -24 -20 -24 -3 0 -5 20 -5 45 0 49 8 56
28 24z m-48 -89 c0 -4 -9 -18 -19 -31 l-19 -24 -20 25 -20 25 21 29 20 29 19
-23 c10 -12 18 -26 18 -30z m92 22 c15 -26 15 -29 -2 -52 l-18 -24 -20 24
c-18 22 -19 27 -6 52 18 35 26 35 46 0z m-142 -87 c0 -7 -7 -18 -15 -25 -8 -7
-15 -18 -15 -24 1 -6 10 0 21 14 l21 25 23 -29 23 -29 -21 -33 c-12 -19 -25
-34 -29 -34 -19 0 -45 66 -47 123 l-2 61 20 -18 c12 -11 21 -25 21 -31z m60
-2 l0 -48 -19 24 c-17 23 -18 27 -4 48 8 13 17 23 19 23 2 0 4 -21 4 -47z m50
2 c0 -7 -9 -20 -20 -30 -20 -18 -20 -17 -20 30 0 47 0 48 20 30 11 -10 20 -23
20 -30z m66 -53 c-2 -2 -13 10 -24 26 -20 27 -20 30 -4 53 l17 24 7 -50 c4
-27 5 -51 4 -53z m-22 1 c16 -26 26 -59 30 -103 l6 -65 -25 30 c-29 35 -30 44
-10 71 24 32 17 41 -8 10 l-24 -29 -21 31 c-12 16 -22 33 -22 37 0 10 34 54
42 55 4 0 19 -17 32 -37z m-164 -84 c6 -11 2 -26 -13 -47 -12 -17 -24 -32 -27
-32 -3 0 -3 30 -2 67 4 62 5 66 19 48 8 -11 18 -27 23 -36z m68 -51 l-4 -33
-18 36 c-18 35 -18 37 0 65 l19 28 3 -32 c2 -17 2 -47 0 -64z m62 32 c0 -3
-11 -18 -25 -35 l-24 -30 0 65 0 65 24 -30 c14 -16 25 -32 25 -35z m-90 -45
l22 -35 -22 -30 c-12 -16 -25 -30 -29 -30 -4 0 -17 14 -29 30 l-23 30 28 35
c15 19 29 35 30 35 1 0 11 -16 23 -35z m125 0 l27 -34 -22 -31 c-12 -16 -24
-30 -28 -29 -4 0 -17 13 -30 29 l-23 29 23 35 c13 20 24 36 25 36 1 0 14 -16
28 -35z m-174 -123 c-5 -10 -19 -26 -32 -37 l-22 -20 6 34 c4 18 7 48 7 65 l1
31 24 -28 c19 -21 23 -33 16 -45z m78 -7 c-3 -70 -6 -77 -35 -106 l-32 -31
-27 36 -27 35 27 36 c15 19 30 35 32 35 3 0 14 -11 25 -26 11 -14 23 -23 26
-19 3 3 -5 16 -17 29 l-23 25 22 30 c12 17 24 31 26 31 3 0 4 -34 3 -75z m49
-2 c-28 -46 -38 -40 -38 23 l0 59 27 -28 c27 -26 27 -28 11 -54z m91 -3 l0
-45 -28 35 -29 35 21 29 c19 27 21 28 28 10 4 -10 8 -39 8 -64z m-17 -43 c7
-14 4 -27 -14 -53 -13 -18 -26 -34 -30 -34 -4 0 -19 16 -34 35 l-26 35 27 36
c26 34 28 35 47 17 11 -10 24 -26 30 -36z m-202 -99 c0 -4 -13 -22 -30 -40
l-29 -33 -1 45 c0 25 3 56 7 69 l6 24 24 -29 c12 -16 23 -32 23 -36z m230 13
c0 -27 3 -56 6 -65 10 -26 -9 -17 -39 19 l-28 34 22 31 c13 16 26 30 31 30 4
0 8 -22 8 -49z m-150 -23 l-1 -63 -28 35 -29 34 22 28 c11 15 24 27 29 27 4 1
7 -27 7 -61z m49 36 c21 -27 20 -36 -12 -76 -23 -29 -27 -22 -27 42 0 33 4 60
9 60 5 0 19 -12 30 -26z m-83 -79 l27 -36 -33 -34 c-32 -33 -35 -34 -53 -17
-38 34 -40 51 -12 88 14 19 30 34 35 34 5 0 21 -16 36 -35z m157 -4 c26 -28
37 -51 41 -87 12 -88 5 -129 -30 -171 l-32 -38 -39 31 c-21 17 -39 37 -40 45
-2 8 13 32 32 54 l35 40 35 -40 c19 -22 34 -36 35 -30 0 5 -14 24 -32 42 l-32
33 20 27 c35 48 37 60 5 23 l-31 -34 -36 36 -37 36 29 36 c16 20 32 36 35 36
4 0 22 -17 42 -39z m-227 -141 c-44 -50 -49 -64 -9 -27 l40 38 36 -43 36 -43
-37 -37 c-20 -21 -40 -38 -44 -38 -5 0 -22 15 -38 33 -16 17 -30 27 -30 21 0
-5 14 -23 30 -39 l30 -29 -37 -38 c-20 -21 -41 -38 -45 -38 -11 0 2 132 14
147 6 7 7 20 4 29 -4 10 -4 51 0 92 l7 74 33 -38 32 -39 -22 -25z m104 18 l-1
-73 -34 40 -34 40 31 32 c18 18 33 33 35 33 2 0 3 -33 3 -72z m52 38 l27 -34
-27 -36 c-15 -19 -30 -35 -34 -36 -5 0 -8 32 -8 70 0 39 3 70 8 70 4 0 19 -15
34 -34z m136 -274 c-3 -22 -5 -21 -41 16 l-39 39 34 38 33 38 8 -54 c4 -30 6
-64 5 -77z m-188 48 c0 -38 -3 -70 -7 -69 -5 0 -21 16 -37 35 l-29 35 34 35
c18 18 34 34 36 34 2 0 3 -31 3 -70z m58 37 l32 -33 -31 -37 c-17 -20 -35 -37
-40 -37 -5 0 -9 32 -9 70 0 39 4 70 8 70 4 0 22 -15 40 -33z m-111 -79 c18
-18 33 -36 33 -42 0 -12 -70 -86 -81 -86 -4 0 -22 18 -40 41 l-32 40 39 40
c21 21 40 39 43 39 3 0 20 -14 38 -32z m197 -7 c42 -43 41 -54 -8 -101 l-27
-24 -41 41 -41 41 32 41 c18 23 36 41 40 41 4 0 24 -18 45 -39z m65 -181 l1
-35 -41 42 -42 41 34 42 34 42 7 -48 c3 -27 7 -65 7 -84z m-350 82 l30 -39
-45 -44 -45 -44 7 75 c6 71 10 90 19 90 2 0 17 -17 34 -38z m124 -79 l-8 -42
-34 40 -33 41 38 39 39 40 3 -38 c1 -21 -1 -57 -5 -80z m90 79 l37 -37 -40
-45 -39 -45 -1 36 c0 20 -3 57 -6 83 -4 26 -3 46 3 46 5 0 25 -17 46 -38z
m-55 -78 c10 -87 0 -145 -20 -111 -9 17 -2 204 8 194 2 -2 8 -39 12 -83z m-79
-15 l34 -40 -49 -50 -50 -50 -32 46 c-18 25 -32 49 -32 52 0 12 73 83 85 82 5
0 25 -19 44 -40z m227 0 l42 -41 -36 -51 -36 -50 -43 49 c-24 26 -43 51 -43
54 0 8 61 80 68 80 3 0 25 -19 48 -41z m-333 -98 c15 -22 27 -43 27 -48 0 -11
-69 -93 -78 -93 -4 0 -3 41 2 90 5 50 12 90 15 90 3 0 18 -18 34 -39z m136
-28 c-5 -38 -8 -81 -9 -98 l0 -30 -24 30 c-52 63 -52 69 -10 119 21 25 41 46
44 46 3 0 3 -30 -1 -67z m130 -68 c-18 -25 -36 -42 -40 -38 -4 5 -10 46 -13
93 l-7 85 46 -48 46 -47 -32 -45z m135 5 l7 -55 -45 45 c-25 24 -46 47 -46 50
0 3 15 26 32 50 l33 44 6 -40 c4 -21 10 -64 13 -94z m-243 19 c-16 -52 -21
-47 -14 14 4 33 9 45 16 38 7 -7 6 -23 -2 -52z m47 -14 c1 -29 0 -29 -13 8 -8
21 -11 45 -8 55 6 14 8 13 14 -8 4 -14 7 -38 7 -55z m-125 -27 c15 -20 27 -41
27 -46 0 -11 -76 -82 -88 -82 -5 0 -23 18 -41 40 l-32 40 47 50 c26 28 50 47
54 43 3 -5 18 -25 33 -45z m132 -76 c8 -31 15 -74 15 -97 l-1 -40 -20 39 c-20
37 -20 46 -4 91 6 17 4 16 -13 -4 l-20 -24 -14 28 c-14 25 -13 34 1 78 l16 49
13 -31 c7 -18 19 -58 27 -89z m145 73 l44 -45 -30 -37 c-17 -20 -34 -38 -40
-39 -5 -2 -29 14 -53 35 l-44 39 32 46 c18 25 35 46 39 46 4 0 28 -20 52 -45z
m-386 -176 c-21 -21 -42 -39 -47 -39 -8 0 -3 54 10 124 l5 30 35 -38 35 -38
-38 -39z m140 27 c-4 -42 -10 -76 -13 -75 -3 0 -21 19 -40 42 l-33 42 42 38
c24 20 45 36 47 33 2 -2 1 -38 -3 -80z m41 54 c14 -28 14 -33 -5 -71 -12 -22
-24 -39 -26 -36 -5 5 7 137 12 137 2 0 10 -13 19 -30z m130 -10 l39 -40 -20
-22 c-39 -45 -46 -62 -10 -25 20 20 40 37 44 37 4 0 25 -18 46 -39 44 -45 47
-35 -43 -151 l-66 -84 -11 84 c-6 47 -10 87 -8 89 3 3 22 -13 44 -34 22 -21
42 -36 45 -33 4 3 -14 23 -39 44 -25 21 -50 52 -55 69 -13 44 -23 145 -13 145
4 0 25 -18 47 -40z m135 18 c0 -13 3 -48 7 -78 l6 -54 -46 38 -47 38 31 39
c35 44 49 49 49 17z m-214 -103 l26 -46 -27 -40 -26 -41 -29 38 -28 38 24 48
c13 26 26 48 29 48 2 0 16 -20 31 -45z m-146 -6 l33 -41 -24 -23 c-58 -56
-162 -145 -168 -145 -4 0 -2 34 3 75 5 41 12 75 16 75 4 0 20 -16 35 -36 15
-19 29 -33 32 -30 3 2 -10 23 -28 46 l-34 42 45 39 c25 21 48 39 51 39 3 0 20
-18 39 -41z m394 -171 c7 -45 5 -49 -35 -93 -23 -25 -45 -45 -48 -45 -4 0 -26
14 -49 31 l-42 31 20 26 c11 15 28 38 39 52 l20 25 40 -39 c22 -22 43 -37 46
-34 3 3 -13 22 -36 41 -44 38 -44 37 0 96 l26 34 6 -39 c4 -21 10 -60 13 -86z
m-360 45 c-11 -108 -14 -112 -54 -57 l-34 47 43 39 c24 21 45 38 48 38 2 0 1
-30 -3 -67z m50 32 l27 -35 -37 -51 c-20 -27 -37 -49 -39 -47 -3 4 17 168 20
168 2 0 15 -16 29 -35z m107 -49 c5 -43 9 -80 6 -82 -4 -4 -67 83 -67 93 0 10
42 74 46 70 2 -2 9 -38 15 -81z m-216 -52 c39 -52 38 -58 -22 -95 l-34 -22
-35 34 c-19 18 -34 38 -34 45 0 10 76 84 86 84 2 0 19 -21 39 -46z m184 -4
l35 -51 -35 -29 c-19 -16 -37 -29 -41 -30 -3 0 -20 11 -36 25 -17 14 -34 25
-38 25 -5 0 7 -14 26 -30 l35 -30 -40 -34 c-50 -44 -38 -47 15 -5 l39 31 40
-33 c23 -18 41 -36 41 -41 0 -13 -162 -7 -176 6 -12 12 -3 112 12 138 18 32
76 108 82 108 4 0 22 -23 41 -50z m-249 -120 c-1 -6 -87 -70 -95 -70 -4 0 -4
12 -1 28 2 15 8 49 11 76 l7 48 39 -38 c21 -21 39 -41 39 -44z m505 -8 c8 -71
5 -72 -60 -18 l-30 24 34 36 c19 20 38 33 42 29 4 -5 10 -37 14 -71z m-407 1
c-5 -32 -10 -59 -12 -60 -1 -1 -17 13 -35 31 l-33 34 38 26 c21 14 41 26 45
26 3 0 2 -26 -3 -57z m202 35 c0 -13 3 -40 7 -62 6 -36 5 -38 -13 -27 -10 6
-32 22 -48 35 l-29 24 29 26 c36 32 54 33 54 4z m57 -6 l32 -27 -29 -35 c-15
-19 -31 -33 -33 -30 -10 10 -19 120 -11 120 5 0 23 -13 41 -28z m-287 -104 c0
-5 -34 -8 -75 -7 -41 1 -75 4 -75 8 1 3 20 20 43 37 l42 32 33 -31 c17 -17 32
-35 32 -39z m426 0 c3 -5 -31 -8 -75 -8 -45 0 -81 3 -81 7 0 4 14 22 32 40
l31 32 44 -32 c25 -17 47 -35 49 -39z m-546 -164 c0 -3 -10 -14 -22 -24 -21
-17 -25 -17 -40 -3 -10 9 -18 11 -18 5 0 -6 5 -14 10 -17 15 -9 12 -18 -16
-38 l-25 -19 6 29 c13 59 26 73 67 73 21 0 38 -3 38 -6z m110 0 c0 -3 -10 -14
-22 -24 -21 -17 -25 -17 -40 -3 -27 25 -22 33 22 33 22 0 40 -3 40 -6z m130
-3 c0 -5 -12 -16 -26 -26 -26 -17 -27 -16 -53 9 l-26 26 53 0 c28 0 52 -4 52
-9z m130 2 c0 -5 -12 -16 -25 -26 -24 -17 -26 -17 -50 0 -36 26 -31 33 25 33
28 0 50 -3 50 -7z m110 -1 c0 -5 -8 -16 -18 -25 -17 -16 -20 -15 -42 8 l-23
25 41 0 c23 0 42 -4 42 -8z m110 1 c0 -5 -7 -17 -15 -28 -15 -19 -16 -19 -42
8 l-28 27 43 0 c23 0 42 -3 42 -7z m-550 -34 c7 -11 10 -22 8 -22 -2 -1 -13
-11 -25 -21 -22 -19 -24 -19 -43 -1 l-20 18 22 24 c27 29 44 29 58 2z m119 2
l23 -18 -27 -21 c-34 -27 -37 -27 -60 -2 -17 19 -17 21 0 40 22 25 33 25 64 1z
m129 -1 l24 -20 -29 -24 -28 -25 -27 27 -28 26 28 18 c33 22 32 22 60 -2z
m131 -1 c23 -19 23 -20 6 -39 -22 -25 -33 -25 -65 -1 -24 19 -24 20 -6 40 23
26 34 26 65 0z m109 1 c20 -16 21 -22 10 -39 -16 -26 -26 -26 -55 1 -21 20
-22 23 -6 40 20 22 22 22 51 -2z m87 -57 c-4 -19 -12 -23 -45 -23 -44 0 -49 8
-21 34 16 15 19 15 31 1 7 -8 17 -15 23 -15 6 0 1 10 -11 23 -21 22 -21 24 -4
40 16 17 17 16 25 -10 4 -16 5 -38 2 -50z m-645 8 c15 -29 13 -31 -32 -31
l-41 0 23 25 c28 30 36 31 50 6z m112 2 c28 -25 22 -32 -28 -31 l-45 1 22 23
c27 29 27 29 51 7z m136 -2 c12 -11 22 -22 22 -25 0 -3 -22 -6 -50 -6 -55 0
-62 9 -27 33 28 20 28 20 55 -2z m133 2 c16 -10 29 -21 29 -24 0 -4 -25 -8
-56 -8 l-56 0 23 25 c27 29 24 28 60 7z m127 -2 c31 -27 28 -31 -23 -31 -49 0
-53 4 -28 32 20 22 22 22 51 -1z m160 -73 l3 -28 -385 0 c-212 0 -386 3 -386
8 0 4 3 17 6 30 l6 22 377 -2 376 -3 3 -27z m-674 -65 c-11 -53 -12 -54 -49
-21 -19 18 -35 36 -35 40 0 5 20 8 45 8 44 0 45 -1 39 -27z m106 22 c0 -8 -91
-67 -97 -62 -3 3 -2 19 2 36 6 29 10 31 51 31 24 0 44 -2 44 -5z m357 -105
c17 -143 58 -341 99 -482 19 -64 34 -120 34 -123 0 -3 -138 -5 -306 -5 -286 0
-305 1 -300 18 37 121 50 166 75 272 25 105 71 374 71 418 0 10 35 12 157 10
l157 -3 13 -105z m111 78 c5 -18 8 -35 6 -37 -4 -4 -104 59 -104 65 0 2 20 4
45 4 42 0 45 -2 53 -32z m109 20 c10 -17 52 -168 47 -168 -3 0 -32 19 -64 42
-57 40 -80 74 -80 119 0 16 8 19 44 19 25 0 48 -6 53 -12z m-707 -80 c0 -4
-27 -26 -60 -48 -33 -22 -60 -38 -60 -34 0 4 10 43 21 87 l22 79 38 -38 c22
-21 39 -41 39 -46z m139 15 c-4 -32 -8 -69 -8 -83 -1 -19 -17 -36 -62 -68 -98
-70 -94 -78 -53 97 5 24 6 23 50 -20 24 -24 44 -38 44 -32 0 7 -6 16 -12 20
-7 5 -26 22 -41 40 l-29 31 53 36 c30 20 56 36 59 36 4 0 3 -26 -1 -57z m418
19 l52 -38 -48 -48 c-46 -46 -49 -47 -54 -24 -12 49 -19 148 -11 148 5 0 33
-18 61 -38z m75 -134 c9 -46 14 -85 13 -87 -6 -5 -115 73 -115 83 0 9 69 81
81 85 3 0 12 -36 21 -81z m113 0 c5 -5 -9 -26 -35 -53 l-45 -46 -17 78 c-10
43 -18 84 -18 91 0 11 72 -33 115 -70z m-745 58 c0 -21 -30 -151 -38 -162 -10
-14 -144 -106 -148 -102 -3 3 32 122 52 177 3 10 18 2 51 -30 l47 -44 -33 42
c-18 24 -37 46 -43 49 -5 3 14 24 44 45 58 42 68 46 68 25z m104 -173 c-9 -48
-24 -95 -33 -104 -21 -22 -151 -93 -151 -83 0 4 12 45 27 91 l27 83 48 -47
c26 -26 48 -43 48 -38 0 5 -20 30 -45 55 l-46 47 68 45 c37 25 69 44 71 43 2
-2 -4 -43 -14 -92z m489 45 l58 -39 -42 -50 c-22 -27 -44 -51 -49 -54 -7 -5
-20 41 -35 125 -4 19 -9 43 -12 54 -6 21 -6 21 80 -36z m201 -39 c15 -50 25
-93 23 -95 -3 -3 -118 74 -134 90 -6 6 66 96 76 96 4 0 20 -41 35 -91z m-859
-100 c-14 -41 -28 -80 -30 -88 -4 -11 -16 -4 -45 24 -22 22 -40 42 -40 46 0 8
132 100 137 96 2 -2 -8 -37 -22 -78z m755 -13 c16 -48 26 -86 22 -84 -4 2 -36
18 -71 36 -34 18 -65 32 -67 30 -2 -2 28 -21 66 -42 39 -20 70 -41 70 -45 0
-10 -99 -106 -103 -100 -13 14 -47 173 -42 192 7 21 85 110 92 103 2 -1 16
-42 33 -90z m59 46 l70 -49 -43 -42 -44 -43 -30 91 c-17 50 -29 91 -27 91 2 0
35 -22 74 -48z m-897 -99 c21 -20 38 -40 38 -44 0 -10 -131 -81 -137 -75 -5 4
5 36 39 129 6 15 13 27 16 27 4 0 23 -17 44 -37z m221 15 c-16 -66 -43 -162
-48 -166 -3 -4 -29 18 -58 47 -29 29 -47 55 -42 58 6 2 39 22 75 43 78 46 80
46 73 18z m789 -58 c14 -44 24 -80 21 -80 -3 0 -37 17 -74 37 l-69 37 42 43
c23 24 45 43 48 43 3 0 18 -36 32 -80z m-1000 -119 l-28 -84 -42 51 -43 51 23
14 c53 33 113 63 116 57 1 -3 -10 -43 -26 -89z m103 49 c27 -27 47 -51 44 -54
-2 -2 -35 -20 -74 -39 -38 -20 -63 -36 -55 -36 8 0 39 13 69 29 30 17 58 30
62 30 4 0 2 -16 -4 -35 l-10 -35 -61 0 c-34 0 -66 4 -73 8 -9 5 -5 30 14 95
15 48 29 87 33 87 3 0 28 -22 55 -50z m790 -36 c31 -102 29 -105 -59 -102 -55
3 -60 5 -69 31 -5 16 -7 31 -4 33 3 3 32 -8 66 -25 33 -17 64 -31 68 -31 4 1
-22 17 -59 36 -38 19 -68 37 -68 41 0 6 91 103 97 103 1 0 14 -39 28 -86z
m124 10 c2 -2 -13 -24 -34 -49 -20 -25 -35 -48 -33 -51 3 -2 22 17 44 42 l38
47 12 -29 c30 -76 32 -74 -34 -74 -36 0 -64 5 -70 13 -5 6 -19 41 -30 77 -11
36 -24 74 -28 84 -6 16 5 13 62 -19 38 -21 71 -39 73 -41z m-1108 -46 c56 -74
57 -68 -10 -68 l-59 0 16 50 c9 28 19 50 22 50 3 0 17 -14 31 -32z m-113 -145
l-3 -58 -37 -3 -38 -3 0 60 0 61 40 0 41 0 -3 -57z m82 -3 l0 -60 -35 0 -35 0
0 60 0 60 35 0 35 0 0 -60z m90 0 l0 -60 -35 0 -35 0 0 60 0 60 35 0 35 0 0
-60z m90 -1 l0 -60 -37 3 -38 3 -3 58 -3 57 41 0 40 0 0 -61z m88 4 l-3 -58
-37 -3 -38 -3 0 60 0 61 40 0 41 0 -3 -57z m82 -3 l0 -60 -35 0 -35 0 0 60 0
60 35 0 35 0 0 -60z m90 0 l0 -60 -34 0 -34 0 -4 60 -3 60 38 0 37 0 0 -60z
m88 3 l-3 -58 -35 0 -35 0 -3 58 -3 57 41 0 41 0 -3 -57z m82 -3 l0 -60 -35 0
-35 0 0 60 0 60 35 0 35 0 0 -60z m90 0 l0 -60 -35 0 -35 0 0 60 0 60 35 0 35
0 0 -60z m90 -1 l0 -60 -37 3 -38 3 -3 58 -3 57 41 0 40 0 0 -61z m88 4 l-3
-58 -37 -3 -38 -3 0 60 0 61 40 0 41 0 -3 -57z m82 -3 l0 -60 -35 0 -35 0 0
60 0 60 35 0 35 0 0 -60z m90 0 l0 -60 -35 0 -35 0 0 60 0 60 35 0 35 0 0 -60z
m88 3 l-3 -58 -35 0 -35 0 -3 58 -3 57 41 0 41 0 -3 -57z m90 0 l-3 -58 -37
-3 -38 -3 0 60 0 61 40 0 41 0 -3 -57z m82 -3 l0 -60 -35 0 -35 0 0 60 0 60
35 0 35 0 0 -60z m10 -135 l0 -55 -742 2 -743 3 -3 53 -3 52 745 0 746 0 0
-55z m-1452 -135 l3 -55 -24 23 c-32 30 -46 28 -17 -3 l23 -25 -41 0 c-23 0
-42 5 -42 10 0 6 21 31 48 57 32 31 38 40 19 29 -28 -17 -28 -17 -17 4 21 40
45 20 48 -40z m82 40 c0 -11 -4 -20 -8 -20 -5 0 -17 9 -27 20 -18 20 -17 20 8
20 20 0 27 -5 27 -20z m45 0 c-10 -11 -22 -20 -27 -20 -4 0 -8 9 -8 20 0 15 7
20 27 20 25 0 26 0 8 -20z m108 0 c3 -11 2 -20 -2 -20 -5 0 -16 9 -26 20 -18
19 -17 20 2 20 12 0 23 -8 26 -20z m31 5 c-4 -8 -8 -15 -10 -15 -2 0 -4 7 -4
15 0 8 4 15 10 15 5 0 7 -7 4 -15z m126 -5 c0 -17 -3 -19 -19 -10 -32 16 -34
30 -7 30 19 0 26 -5 26 -20z m45 0 c-10 -11 -22 -20 -27 -20 -4 0 -8 9 -8 20
0 15 7 20 27 20 25 0 26 0 8 -20z m112 5 c10 -27 -6 -30 -29 -7 l-22 22 22 0
c12 0 25 -7 29 -15z m68 -45 c0 -53 -1 -55 -27 -58 -23 -3 -28 1 -28 19 0 21
1 21 18 6 29 -26 38 -20 12 8 l-23 25 24 26 24 27 -27 -18 c-27 -17 -28 -17
-28 5 0 17 5 21 28 18 26 -3 27 -5 27 -58z m85 40 c0 -11 -4 -20 -8 -20 -5 0
-17 9 -27 20 -18 20 -17 20 8 20 20 0 27 -5 27 -20z m45 0 c-10 -11 -22 -20
-27 -20 -4 0 -8 9 -8 20 0 15 7 20 27 20 25 0 26 0 8 -20z m115 0 c0 -11 -4
-20 -8 -20 -5 0 -17 9 -27 20 -18 20 -17 20 8 20 20 0 27 -5 27 -20z m65 -40
c0 -53 -1 -55 -27 -58 -23 -3 -28 1 -28 19 0 21 1 21 18 6 29 -26 38 -20 12 8
l-23 25 24 27 24 27 -27 -17 c-27 -17 -28 -17 -28 3 0 17 5 21 28 18 26 -3 27
-5 27 -58z m85 40 c0 -17 -3 -19 -19 -10 -32 16 -34 30 -7 30 19 0 26 -5 26
-20z m45 0 c-10 -11 -22 -20 -27 -20 -4 0 -8 9 -8 20 0 15 7 20 27 20 25 0 26
0 8 -20z m115 4 c0 -8 -4 -12 -10 -9 -5 3 -10 10 -10 16 0 5 5 9 10 9 6 0 10
-7 10 -16z m68 -38 c4 -54 -10 -79 -30 -57 -11 12 -9 13 7 7 17 -6 17 -4 -4
18 l-24 26 24 26 24 27 -27 -18 c-27 -17 -28 -17 -28 5 0 17 5 21 28 18 25 -3
27 -7 30 -52z m82 33 c0 -21 -1 -21 -27 -4 l-28 18 24 -27 24 -26 -24 -27 -24
-27 28 17 c26 17 27 17 27 -3 0 -17 -5 -21 -27 -18 -25 3 -28 7 -31 47 -4 57
2 71 33 71 19 0 25 -5 25 -21z m45 1 c-10 -11 -22 -20 -27 -20 -4 0 -8 9 -8
20 0 15 7 20 27 20 25 0 26 0 8 -20z m96 13 c9 -56 7 -63 -22 -83 l-29 -21 0
52 c0 50 1 51 18 36 26 -24 39 -21 17 3 -16 18 -16 20 -2 20 10 0 18 -3 18 -7z
m-1391 -51 c0 -9 -42 -52 -52 -52 -4 0 -8 23 -8 51 l0 50 30 -21 c17 -12 30
-24 30 -28z m88 -29 l-3 -27 -30 27 -30 26 30 25 30 24 3 -24 c2 -13 2 -36 0
-51z m71 26 c1 -3 -12 -15 -29 -27 l-30 -23 0 51 0 52 29 -24 c17 -13 30 -26
30 -29z m77 -45 c-3 -8 -17 -14 -31 -14 -19 0 -25 5 -25 22 0 20 1 20 18 5 28
-26 39 -20 14 6 l-22 24 22 29 23 29 3 -44 c2 -24 1 -50 -2 -57z m162 21 l-3
-25 -30 24 -29 23 29 26 30 26 3 -25 c2 -13 2 -35 0 -49z m71 24 c1 -3 -12
-15 -29 -27 l-30 -23 0 51 0 52 29 -24 c17 -13 30 -26 30 -29z m239 -24 l-3
-25 -30 24 -29 23 29 26 30 26 3 -25 c2 -13 2 -35 0 -49z m71 24 c1 -3 -12
-15 -29 -27 l-30 -23 0 51 0 52 29 -24 c17 -13 30 -26 30 -29z m239 -24 l-3
-25 -30 25 -30 24 30 25 30 24 3 -24 c2 -13 2 -35 0 -49z m67 12 c21 -41 19
-47 -12 -47 -25 0 -26 0 -8 20 22 24 9 27 -17 3 -17 -15 -18 -14 -18 37 0 53
0 53 20 35 11 -10 27 -32 35 -48z m243 -11 l-3 -24 -29 23 -29 23 29 25 29 26
3 -25 c2 -13 2 -35 0 -48z m-1033 44 c18 -20 18 -21 -6 -47 l-24 -27 28 17
c26 17 27 17 27 -3 0 -17 -5 -21 -27 -18 -23 2 -29 9 -33 38 -10 60 3 75 35
40z m310 0 c18 -20 18 -21 -6 -47 l-24 -27 28 17 c26 17 27 17 27 -3 0 -15 -7
-20 -24 -20 -29 0 -40 14 -42 55 -1 50 11 58 41 25z m310 0 c18 -20 18 -21 -6
-47 l-24 -27 28 17 c26 17 27 17 27 -3 0 -17 -5 -21 -27 -18 -26 3 -28 7 -31
51 -3 51 5 58 33 27z m523 -58 c14 -22 14 -22 -34 -22 l-47 0 23 25 c27 29 37
28 58 -3z m-1428 -2 c0 -15 -7 -20 -27 -20 l-28 0 25 20 c31 24 30 24 30 0z
m45 0 c18 -20 17 -20 -8 -20 -20 0 -27 5 -27 20 0 11 4 20 8 20 5 0 17 -9 27
-20z m310 0 c18 -20 17 -20 -8 -20 -20 0 -27 5 -27 20 0 11 4 20 8 20 5 0 17
-9 27 -20z m115 0 c0 -15 -7 -20 -27 -20 -25 0 -26 0 -8 20 10 11 22 20 27 20
4 0 8 -9 8 -20z m195 0 c18 -20 17 -20 -8 -20 -20 0 -27 5 -27 20 0 11 4 20 8
20 5 0 17 -9 27 -20z m115 0 c0 -15 -7 -20 -27 -20 -25 0 -26 0 -8 20 10 11
22 20 27 20 4 0 8 -9 8 -20z m195 0 c18 -20 17 -20 -8 -20 -20 0 -27 5 -27 20
0 11 4 20 8 20 5 0 17 -9 27 -20z m310 0 c18 -20 17 -20 -8 -20 -20 0 -27 5
-27 20 0 11 4 20 8 20 5 0 17 -9 27 -20z m-1155 -10 c0 -5 -5 -10 -11 -10 -5
0 -7 5 -4 10 3 6 8 10 11 10 2 0 4 -4 4 -10z m-20 -28 c0 -5 -6 -16 -13 -25
-11 -16 -30 -17 -165 -15 l-152 3 15 23 c16 21 22 22 166 22 82 0 149 -4 149
-8z m1059 -99 c33 -59 59 -109 57 -110 -2 -2 -27 12 -55 32 -74 49 -161 89
-266 121 -84 26 -102 28 -275 28 -161 0 -195 -3 -265 -22 -89 -25 -222 -85
-289 -132 -25 -16 -47 -30 -50 -30 -2 0 23 50 57 110 l61 110 482 0 483 0 60
-107z m289 80 l14 -23 -153 0 c-140 0 -155 2 -166 19 -7 10 -9 22 -5 25 3 4
71 5 150 4 137 -3 145 -4 160 -25z m-1548 -43 c0 -14 -53 -120 -60 -120 -11 1
-81 111 -76 119 8 12 136 13 136 1z m163 2 c8 -4 -185 -112 -199 -112 -5 0 41
84 59 108 10 13 120 16 140 4z m1243 0 c9 -6 64 -99 64 -108 0 -2 -45 18 -100
46 -55 28 -100 55 -100 60 0 11 120 13 136 2z m167 2 c5 -6 -42 -80 -74 -118
-6 -7 -69 101 -69 119 0 7 135 6 143 -1z m-1681 -79 l38 -53 -94 -51 c-52 -28
-97 -51 -99 -51 -3 0 21 47 52 105 31 57 58 104 61 104 3 0 22 -24 42 -54z
m1768 -79 c23 -43 39 -77 34 -75 -47 21 -174 91 -179 99 -4 6 10 33 31 61 l37
50 16 -28 c10 -15 37 -63 61 -107z m-1551 47 c-68 -124 -74 -133 -80 -133 -5
0 -41 48 -72 97 -5 9 22 27 90 62 54 28 99 50 101 50 2 1 -16 -34 -39 -76z
m1365 -24 c11 -9 -62 -111 -74 -104 -9 6 -110 188 -110 199 0 6 167 -80 184
-95z m-1598 -110 c-73 -135 -68 -132 -105 -68 -17 30 -31 57 -31 61 0 8 173
98 178 93 2 -2 -17 -40 -42 -86z m113 32 c17 -24 31 -48 31 -53 0 -9 -182
-100 -188 -94 -3 4 23 55 85 164 14 24 28 40 33 35 4 -4 22 -28 39 -52z m1563
-46 c31 -58 55 -105 53 -105 -9 0 -195 91 -195 96 0 8 74 114 80 114 3 0 30
-47 62 -105z m61 55 l85 -45 -31 -57 c-18 -32 -36 -57 -40 -55 -5 1 -34 49
-64 106 -31 57 -51 102 -46 100 6 -2 49 -24 96 -49z m-1907 -222 c-50 -26 -95
-47 -99 -47 -5 -1 6 25 24 57 17 31 45 81 62 111 l30 53 37 -63 37 -64 -91
-47z m2124 -43 c0 -5 -173 75 -184 85 -5 5 8 36 29 70 l37 61 59 -106 c33 -58
59 -107 59 -110z m-233 45 c-57 -94 -47 -96 -108 15 -30 55 -56 103 -57 108
-2 4 39 -13 91 -40 l96 -47 -22 -36z m-1632 53 c-21 -38 -47 -83 -58 -102
l-20 -33 -33 53 c-19 30 -34 57 -34 61 0 9 149 87 168 88 9 0 1 -24 -23 -67z
m-198 -75 c-13 -24 -39 -71 -57 -105 -18 -35 -37 -60 -42 -57 -4 3 -22 32 -38
64 l-29 58 87 40 c48 22 91 41 95 41 5 1 -2 -18 -16 -41z m78 -14 l28 -47 -22
-16 c-12 -9 -53 -34 -93 -55 l-71 -39 38 69 c21 38 47 86 58 106 11 20 24 35
28 33 4 -3 19 -26 34 -51z m1844 -52 c28 -50 51 -94 51 -96 0 -3 -36 16 -81
41 -44 25 -83 43 -85 40 -3 -3 28 -23 68 -45 121 -67 115 -59 78 -125 -17 -31
-33 -57 -35 -57 -2 0 -31 49 -64 109 -37 66 -59 117 -56 129 6 33 57 114 65
105 5 -4 31 -50 59 -101z m54 67 c45 -23 84 -43 86 -45 4 -4 -62 -124 -69
-124 -5 0 -110 195 -110 205 0 9 9 6 93 -36z m167 -164 c23 -44 52 -95 63
-114 12 -19 17 -32 11 -29 -5 3 -55 31 -111 63 l-103 57 36 69 c42 80 34 83
104 -46z m-2282 46 c17 -32 32 -61 32 -64 0 -3 -45 -31 -100 -63 -56 -31 -99
-59 -96 -61 3 -3 44 17 93 45 48 28 89 50 90 48 2 -1 -10 -26 -25 -54 l-27
-52 -67 0 c-37 0 -70 4 -73 10 -6 10 122 250 134 250 3 0 21 -26 39 -59z m190
-71 c-33 -60 -63 -112 -67 -114 -4 -3 -22 22 -39 54 l-32 58 97 56 c54 31 99
56 100 56 0 0 -26 -49 -59 -110z m-115 -69 c15 -27 27 -51 27 -55 0 -3 -27 -6
-60 -6 l-60 0 27 55 c15 30 30 55 33 55 4 0 19 -22 33 -49z m2090 0 c15 -27
27 -51 27 -55 0 -3 -27 -6 -60 -6 l-60 0 27 55 c15 30 30 55 33 55 4 0 19 -22
33 -49z m84 -2 c48 -28 90 -53 93 -55 2 -3 -26 -4 -63 -2 l-68 3 -30 53 c-17
28 -28 52 -26 52 3 0 45 -23 94 -51z"/>
<path d="M2560 2125 c-19 -19 -29 -35 -24 -35 13 0 69 58 63 65 -3 2 -21 -11
-39 -30z"/>
</g>
</svg>
